# xmcd
#
# Track frame offsets: 
#        150
#        15894
#        29166
#        44066
#        60645
#        72947
#        93661
#
# Disc length: 1344 seconds
#
# Revision: 0
# Processed by: cddbd v1.5.2PL0 Copyright (c) Steve Scherf et al.
# Submitted via: ExactAudioCopy v0.99pb3
#
DISCID=5e053e07
DTITLE=Sleighboys, The - Merry Christmas!
DYEAR=2005
DGENRE=Christmas/Holiday
TTITLE0=Merry Christmas, Santa!
TTITLE1=Merry Christmas (Under The Mistletoe)
TTITLE2=A Country Christmas
TTITLE3=Merry Christmas (And A Happy New Year)
TTITLE4=Merry Christmas (Dance Mix)
TTITLE5=Merry Christmas (Swing Version)
TTITLE6=Data
EXTD=
EXTT0=
EXTT1=
EXTT2=
EXTT3=
EXTT4=
EXTT5=
EXTT6=
PLAYORDER=
